<?xml version="1.0" standalone="no"?>
<!DOCTYPE svg PUBLIC "-//W3C//DTD SVG 20010904//EN"
 "http://www.w3.org/TR/2001/REC-SVG-20010904/DTD/svg10.dtd">
<svg version="1.0" xmlns="http://www.w3.org/2000/svg"
 width="1766.000000pt" height="1766.000000pt" viewBox="0 0 1766.000000 1766.000000"
 preserveAspectRatio="xMidYMid meet">
<metadata>
Created by potrace 1.14, written by Peter Selinger 2001-2017
</metadata>
<g transform="translate(0.000000,1766.000000) scale(0.100000,-0.100000)"
fill="#000000" stroke="none">
<path d="M8908 16575 c-2 -1 -66 -6 -143 -9 -77 -4 -158 -9 -180 -11 -22 -2
-76 -6 -120 -10 -128 -11 -210 -19 -285 -30 -14 -2 -47 -6 -75 -10 -99 -12
-147 -20 -325 -51 -80 -14 -176 -32 -215 -40 -78 -17 -99 -22 -135 -29 -155
-31 -696 -188 -800 -232 -8 -3 -19 -7 -25 -9 -34 -8 -665 -251 -750 -288 -16
-7 -41 -18 -55 -24 -227 -98 -284 -125 -495 -232 -115 -58 -257 -134 -315
-168 -484 -288 -801 -544 -1130 -912 -52 -58 -123 -132 -159 -164 -36 -32 -86
-77 -111 -100 -25 -23 -86 -77 -135 -121 -50 -44 -95 -84 -101 -90 -6 -5 -46
-41 -89 -80 -42 -38 -87 -79 -99 -90 -25 -23 -159 -141 -188 -167 -23 -20
-166 -148 -182 -163 -6 -6 -67 -60 -136 -120 -69 -60 -130 -114 -136 -120 -17
-15 -129 -113 -229 -199 -49 -43 -103 -90 -120 -105 -16 -14 -91 -79 -165
-143 -139 -120 -338 -317 -425 -423 -28 -33 -52 -62 -55 -65 -12 -10 -179
-238 -217 -295 -144 -215 -323 -560 -411 -790 -10 -27 -23 -59 -27 -70 -5 -11
-9 -22 -10 -25 -1 -3 -4 -12 -7 -20 -30 -78 -43 -149 -34 -186 5 -17 21 -32
49 -45 39 -18 59 -19 272 -13 127 3 255 7 285 8 30 2 129 6 220 10 91 4 194 9
230 11 36 2 133 7 215 10 83 4 179 8 214 10 35 2 125 7 200 10 75 3 170 8 211
11 41 2 127 6 190 9 63 3 151 8 195 11 117 7 217 13 330 19 55 2 132 7 170 10
39 3 102 7 140 10 79 5 191 13 280 20 33 2 94 7 135 10 41 4 86 8 100 10 14 2
59 6 100 10 41 4 86 8 100 10 14 2 50 7 80 10 30 3 66 8 80 10 14 2 50 6 80
10 30 3 66 8 80 10 14 3 45 7 70 11 25 3 54 7 65 9 11 2 40 6 65 9 25 3 59 9
75 13 17 3 37 7 45 8 27 3 91 15 225 40 50 9 101 19 115 21 23 4 81 16 355 74
55 11 113 23 129 26 16 3 33 7 36 9 4 2 22 7 40 10 19 3 97 20 174 36 78 17
152 33 166 35 14 3 45 10 70 15 25 6 56 13 70 15 14 2 36 7 50 10 14 3 36 8
50 10 14 3 57 11 95 19 39 8 86 17 105 20 19 3 42 8 50 10 8 2 38 7 65 11 28
3 52 8 55 9 3 2 102 20 220 40 118 20 226 38 240 41 14 2 43 7 65 10 33 4 152
22 255 39 14 2 48 7 75 10 28 4 57 8 65 10 8 2 42 7 75 10 33 4 67 8 75 10 8
2 40 7 70 10 30 3 66 8 80 10 14 3 50 7 80 10 30 3 64 7 75 9 11 2 54 7 95 12
41 4 77 8 80 9 3 1 41 5 85 9 44 5 87 9 95 11 8 1 47 6 85 9 140 13 181 17
215 21 19 3 71 7 115 11 44 3 96 7 115 9 19 2 76 6 125 10 50 3 109 8 132 10
24 2 87 7 140 10 54 3 125 8 158 10 55 4 112 7 365 20 474 25 1273 25 1740 0
179 -9 298 -16 345 -20 28 -2 84 -7 125 -10 129 -9 274 -21 365 -30 65 -7 146
-15 205 -21 30 -3 66 -7 80 -10 14 -2 50 -7 80 -10 107 -11 227 -25 250 -29 9
-2 43 -6 75 -10 33 -4 71 -8 85 -10 14 -2 81 -11 150 -20 69 -9 136 -18 150
-20 14 -2 48 -6 75 -10 73 -9 117 -15 145 -20 14 -3 45 -7 70 -10 25 -2 75 -8
110 -14 36 -5 90 -12 120 -16 30 -3 66 -8 80 -10 14 -2 43 -7 65 -9 22 -3 78
-10 125 -16 47 -6 102 -13 123 -15 20 -3 54 -7 75 -10 20 -3 96 -12 167 -20
72 -8 146 -17 165 -19 19 -2 62 -7 95 -11 33 -3 71 -8 85 -10 14 -2 56 -6 93
-10 37 -3 76 -8 85 -10 9 -1 51 -6 92 -10 41 -3 89 -8 105 -10 17 -2 66 -6
110 -10 44 -4 88 -9 97 -11 14 -2 89 -8 208 -16 97 -7 140 23 135 93 -3 49
-22 127 -66 274 -128 423 -298 797 -517 1135 -53 81 -199 281 -238 326 -11 12
-39 46 -64 75 -257 308 -564 561 -1025 844 -163 100 -439 281 -486 319 -14 12
-36 28 -49 36 -58 39 -285 213 -360 276 -81 68 -228 199 -310 275 -246 228
-630 518 -892 674 -315 188 -604 339 -823 430 -49 20 -103 43 -120 50 -49 22
-220 77 -280 91 -5 1 -39 9 -75 17 -36 9 -87 18 -115 22 -27 4 -59 8 -70 10
-11 1 -43 6 -70 9 -28 4 -61 9 -75 11 -14 2 -52 6 -85 10 -33 3 -73 8 -90 10
-16 2 -57 7 -90 10 -33 3 -73 8 -90 10 -16 2 -61 7 -100 10 -38 4 -83 8 -100
10 -16 2 -58 6 -92 9 -35 3 -91 9 -125 12 -35 3 -79 7 -98 9 -219 19 -265 24
-314 31 -38 6 -472 14 -478 9z"/>
<path d="M10279 11636 c-2 -2 -49 -7 -104 -11 -55 -3 -116 -8 -135 -9 -19 -2
-78 -7 -130 -10 -52 -4 -117 -9 -145 -11 -85 -8 -177 -16 -240 -20 -73 -5
-178 -14 -225 -20 -19 -2 -71 -7 -114 -10 -43 -4 -86 -8 -95 -10 -9 -1 -52 -6
-95 -10 -43 -4 -86 -8 -95 -10 -9 -1 -50 -6 -91 -10 -41 -3 -82 -8 -90 -10 -8
-2 -40 -7 -70 -10 -30 -3 -66 -8 -80 -10 -23 -3 -152 -22 -210 -30 -14 -2 -43
-6 -65 -10 -22 -3 -53 -7 -70 -9 -16 -3 -43 -7 -60 -10 -16 -2 -48 -7 -70 -11
-23 -3 -52 -7 -65 -10 -13 -3 -42 -7 -65 -10 -22 -3 -76 -12 -120 -20 -44 -8
-96 -16 -115 -19 -19 -3 -44 -7 -55 -10 -11 -2 -40 -7 -65 -11 -25 -4 -171
-29 -325 -56 -154 -28 -295 -52 -312 -54 -18 -3 -52 -9 -75 -14 -24 -5 -63
-12 -88 -16 -25 -4 -63 -10 -85 -15 -22 -5 -56 -11 -75 -15 -19 -3 -46 -7 -60
-10 -14 -3 -41 -7 -60 -10 -19 -3 -71 -12 -115 -20 -205 -38 -353 -64 -390
-69 -22 -3 -52 -8 -67 -11 -16 -3 -40 -7 -55 -10 -33 -6 -387 -64 -423 -70
-57 -8 -116 -18 -134 -21 -11 -2 -54 -8 -96 -14 -42 -6 -86 -12 -97 -14 -11
-3 -44 -7 -73 -11 -29 -4 -60 -8 -69 -10 -28 -5 -147 -20 -236 -30 -27 -3 -61
-8 -75 -10 -14 -2 -54 -6 -90 -10 -36 -4 -76 -8 -90 -10 -29 -4 -123 -14 -195
-20 -27 -2 -72 -6 -100 -9 -27 -3 -84 -8 -125 -11 -41 -4 -93 -8 -115 -11 -22
-2 -73 -6 -115 -9 -41 -3 -102 -7 -135 -10 -120 -10 -182 -15 -260 -20 -44 -3
-114 -7 -155 -10 -41 -3 -102 -8 -135 -10 -33 -2 -89 -7 -125 -10 -36 -2 -101
-7 -145 -10 -165 -11 -211 -15 -265 -20 -93 -8 -181 -15 -265 -20 -44 -3 -100
-7 -125 -10 -25 -2 -92 -7 -150 -10 -58 -3 -128 -8 -156 -10 -64 -5 -224 -16
-289 -20 -82 -4 -257 -16 -305 -21 -25 -2 -83 -6 -130 -9 -85 -6 -130 -9 -250
-20 -36 -3 -94 -7 -130 -10 -352 -27 -525 -80 -640 -198 -128 -131 -169 -294
-197 -788 -13 -237 -6 -809 12 -921 2 -12 6 -59 10 -103 4 -44 9 -89 11 -100
2 -11 6 -40 9 -65 2 -25 7 -56 9 -70 3 -14 7 -41 10 -60 15 -99 51 -271 86
-405 120 -463 225 -639 420 -705 57 -20 79 -22 175 -17 105 6 150 10 205 22
14 3 45 8 70 11 25 3 52 7 60 9 17 5 38 8 180 30 58 9 121 20 140 25 19 5 53
11 75 15 41 6 131 21 175 30 24 5 40 8 120 22 19 3 44 8 55 10 36 8 99 21 130
27 27 4 204 40 550 111 163 33 136 27 305 65 80 17 156 34 170 36 26 5 146 32
405 89 149 33 506 113 535 120 8 2 87 19 175 39 88 19 264 58 390 86 186 41
378 83 580 126 11 2 36 7 55 10 19 3 49 10 65 15 17 4 44 11 60 13 24 5 463
95 540 112 41 9 121 25 145 30 14 2 36 7 50 10 14 3 36 8 50 10 14 3 48 9 75
14 28 6 59 12 70 14 48 8 92 16 115 21 14 3 39 7 55 10 17 3 41 7 55 10 14 2
43 7 65 10 23 3 50 7 61 9 12 2 45 7 74 11 29 4 62 9 74 11 12 2 48 6 81 9 56
5 84 8 175 20 19 2 62 7 95 10 33 3 76 7 95 10 19 2 64 7 100 10 36 3 81 8
100 10 19 3 64 7 100 10 36 3 88 7 115 10 28 2 79 7 115 10 36 3 83 8 105 10
39 4 109 10 250 20 39 3 88 7 110 10 22 2 85 7 140 10 55 3 118 8 140 10 22 3
78 7 125 10 47 3 114 7 150 10 88 6 206 13 320 20 52 3 124 8 160 10 36 2 119
7 185 10 66 3 154 8 195 10 41 3 134 7 205 10 72 3 180 7 240 10 118 6 284 12
570 20 99 3 243 8 320 10 870 26 1600 27 1895 1 59 -6 209 -17 290 -22 71 -4
184 -12 270 -19 30 -2 89 -7 131 -10 43 -3 101 -7 130 -9 30 -3 86 -8 124 -11
39 -3 88 -7 110 -10 22 -2 72 -7 110 -10 39 -3 88 -8 110 -10 22 -3 85 -9 140
-15 55 -6 116 -13 135 -15 19 -3 58 -7 85 -10 28 -4 61 -8 75 -10 14 -2 77
-11 140 -20 63 -9 126 -18 140 -20 14 -2 84 -13 155 -24 72 -11 171 -28 220
-36 50 -9 104 -18 120 -21 45 -7 98 -16 120 -21 11 -2 36 -6 55 -9 19 -2 55
-9 80 -14 25 -5 83 -16 130 -24 47 -8 121 -22 165 -30 44 -8 94 -17 110 -20
34 -6 457 -83 495 -90 14 -2 54 -9 90 -16 36 -7 77 -14 92 -15 15 -2 55 -9 90
-15 104 -20 138 -23 253 -24 331 -3 530 86 624 280 35 73 74 209 90 321 9 66
7 463 -3 513 -5 27 -12 92 -21 205 -3 39 -7 81 -10 95 -2 14 -7 49 -10 79 -4
30 -8 61 -10 70 -1 9 -6 36 -10 61 -49 318 -190 649 -363 857 -213 254 -451
393 -847 492 -88 22 -173 45 -190 51 -16 7 -37 13 -45 16 -8 2 -49 13 -90 24
-41 11 -84 23 -95 25 -11 3 -29 7 -40 9 -71 17 -167 36 -200 42 -20 3 -47 8
-59 10 -11 2 -41 7 -66 10 -25 3 -52 7 -60 9 -8 2 -35 7 -60 10 -25 3 -63 8
-85 11 -22 4 -53 8 -70 9 -28 4 -160 22 -215 30 -14 2 -50 7 -80 10 -30 3 -66
8 -80 10 -14 2 -61 7 -105 11 -44 4 -91 8 -105 9 -14 2 -59 6 -100 9 -41 3
-100 8 -130 11 -84 7 -200 17 -250 20 -64 4 -192 17 -212 20 -9 2 -48 7 -85
10 -37 4 -75 8 -83 10 -8 2 -37 7 -65 11 -27 3 -57 7 -65 9 -8 1 -35 6 -60 10
-25 4 -54 9 -65 11 -11 2 -40 7 -65 10 -25 3 -52 7 -60 9 -8 1 -40 6 -70 10
-30 4 -64 9 -75 11 -19 4 -54 8 -150 20 -22 2 -51 7 -65 9 -24 4 -103 13 -180
21 -19 2 -59 6 -87 9 -29 3 -78 7 -108 10 -30 3 -80 7 -110 10 -30 3 -79 7
-107 10 -29 2 -89 7 -133 10 -44 3 -107 8 -140 10 -132 10 -284 19 -515 30
-74 3 -171 8 -215 10 -250 13 -1249 38 -1256 31z"/>
<path d="M11388 6285 c-2 -1 -43 -5 -93 -8 -364 -25 -764 -178 -1035 -396 -25
-20 -56 -45 -70 -56 -125 -102 -328 -347 -448 -542 -94 -152 -194 -233 -319
-261 -42 -10 -160 -9 -218 1 -16 3 -55 9 -85 12 -30 3 -66 8 -80 10 -14 2 -56
6 -95 10 -38 3 -86 8 -105 10 -19 2 -80 7 -135 10 -55 3 -118 8 -140 10 -22 3
-94 7 -160 10 -66 3 -147 8 -180 10 -33 2 -96 7 -140 10 -44 3 -100 7 -125 10
-25 2 -79 7 -120 11 -41 3 -82 7 -90 9 -8 1 -44 6 -80 10 -71 9 -72 9 -180 24
-41 6 -93 14 -115 17 -22 2 -65 9 -95 14 -30 5 -77 12 -105 15 -27 3 -77 10
-110 15 -33 5 -80 12 -105 15 -25 3 -58 7 -75 10 -39 6 -100 15 -150 21 -22 2
-51 7 -65 9 -14 2 -45 6 -70 10 -25 3 -56 8 -70 10 -14 2 -52 7 -85 11 -33 3
-67 8 -77 9 -16 4 -87 13 -143 20 -43 5 -126 16 -155 21 -14 2 -47 6 -75 9
-45 5 -84 10 -155 20 -14 2 -50 7 -80 10 -30 3 -66 8 -80 10 -14 2 -52 6 -85
10 -32 4 -66 8 -75 10 -8 2 -44 6 -80 10 -36 3 -76 8 -90 10 -14 2 -52 6 -85
10 -33 3 -71 8 -85 10 -28 4 -122 14 -189 21 -24 2 -60 6 -80 8 -46 6 -120 15
-191 21 -30 3 -73 7 -95 10 -46 5 -211 22 -300 30 -33 3 -80 8 -105 10 -85 9
-145 14 -220 20 -41 3 -95 8 -120 10 -25 3 -76 7 -115 10 -38 3 -92 7 -120 10
-27 3 -90 7 -140 10 -49 3 -115 8 -145 10 -30 3 -95 7 -145 10 -150 8 -238 15
-280 21 -62 9 -202 59 -295 107 -93 48 -110 50 -335 50 -234 -1 -477 -43 -635
-110 -63 -26 -105 -45 -120 -54 -8 -4 -37 -20 -65 -35 -130 -70 -310 -230
-419 -373 -167 -218 -285 -470 -360 -767 -14 -56 -28 -119 -32 -140 -3 -22 -8
-42 -10 -45 -1 -3 -6 -28 -9 -56 -3 -27 -7 -59 -9 -70 -3 -11 -7 -44 -11 -74
-3 -30 -8 -72 -11 -94 -10 -70 -12 -317 -3 -395 20 -176 43 -243 104 -304 98
-99 265 -140 377 -93 51 22 122 89 151 145 34 65 81 216 108 342 12 58 39 180
60 271 37 158 54 239 66 304 4 25 52 236 68 299 11 47 61 167 98 236 163 310
432 477 862 536 28 3 59 8 70 11 112 22 618 21 755 -1 14 -3 55 -7 92 -11 37
-3 77 -8 90 -10 13 -2 50 -6 83 -10 32 -4 66 -8 75 -10 8 -1 42 -6 75 -10 32
-3 62 -8 65 -10 3 -1 36 -6 73 -10 37 -3 76 -8 85 -10 19 -3 86 -12 152 -20
25 -3 54 -7 65 -9 11 -2 49 -7 85 -11 36 -4 73 -9 82 -10 9 -2 44 -6 77 -10
33 -3 69 -8 81 -10 12 -2 48 -7 79 -10 31 -4 63 -8 71 -10 8 -2 44 -7 80 -10
36 -3 89 -10 118 -15 29 -5 56 -9 60 -8 4 1 32 -2 62 -6 90 -12 103 -14 160
-21 30 -4 69 -8 85 -11 17 -2 68 -8 115 -14 103 -13 157 -20 190 -25 14 -2 50
-6 80 -10 30 -4 66 -8 80 -10 14 -2 45 -6 70 -9 25 -3 97 -13 160 -21 63 -9
129 -18 145 -19 33 -4 116 -16 155 -22 14 -2 49 -6 78 -10 29 -3 61 -7 70 -8
27 -6 94 -15 142 -21 25 -3 56 -8 70 -10 14 -2 45 -7 70 -10 25 -4 86 -12 135
-20 50 -8 108 -17 130 -20 40 -6 222 -34 260 -40 11 -1 38 -6 60 -9 22 -3 51
-8 65 -11 14 -3 48 -10 75 -16 28 -6 59 -12 70 -15 11 -2 29 -6 40 -8 11 -2
40 -9 65 -15 25 -7 52 -13 61 -15 28 -7 308 -83 424 -116 153 -43 485 -128
526 -135 19 -3 54 -10 79 -15 47 -10 136 -25 205 -36 22 -3 76 -14 120 -25 44
-11 90 -22 103 -25 57 -11 136 -49 166 -79 18 -18 38 -51 43 -73 11 -42 10
-165 -2 -274 -15 -129 -27 -325 -28 -443 0 -83 11 -330 17 -362 2 -10 7 -43
10 -73 32 -281 135 -628 258 -876 275 -551 615 -883 1077 -1054 73 -26 246
-73 321 -85 19 -4 49 -9 65 -11 60 -10 372 -13 435 -3 83 12 119 17 149 24
595 121 1133 586 1455 1258 92 193 205 510 230 647 11 63 49 211 68 270 22 69
94 213 109 218 5 2 9 9 9 15 0 16 60 88 150 178 125 125 197 176 298 208 175
57 402 9 508 -107 85 -92 173 -383 229 -757 39 -257 145 -664 226 -869 41
-104 135 -288 151 -294 4 -2 8 -8 8 -14 0 -25 139 -198 240 -299 185 -186 337
-287 510 -340 111 -34 293 -34 420 1 147 39 379 170 507 285 237 213 433 510
576 875 87 222 170 536 192 730 3 25 10 79 15 120 21 170 34 363 33 520 -1
125 -11 387 -17 415 -2 11 -7 47 -10 80 -4 33 -9 67 -11 75 -2 8 -7 38 -11 65
-14 102 -19 131 -55 276 -31 126 -72 264 -96 319 -8 19 -19 44 -23 55 -25 63
-116 244 -147 293 -83 130 -150 214 -263 330 -351 357 -850 418 -1238 151
-138 -95 -361 -315 -460 -455 -150 -211 -406 -808 -467 -1090 -37 -172 -59
-261 -67 -271 -12 -15 -48 2 -93 44 -109 104 -260 192 -382 223 -207 53 -394
17 -608 -119 -106 -67 -131 -76 -162 -56 -28 19 -60 83 -69 141 -3 21 -8 42
-10 45 -2 3 -6 21 -9 40 -3 19 -8 46 -11 61 -3 15 -5 29 -4 30 1 2 -3 16 -9
31 -6 15 -13 40 -16 55 -2 15 -21 81 -40 147 -20 66 -38 127 -40 136 -4 21
-46 129 -92 239 -176 421 -452 759 -811 995 -163 106 -370 195 -534 229 -119
24 -129 26 -218 32 -47 3 -102 7 -122 8 -21 2 -39 2 -40 1z"/>
</g>
</svg>
